#!OML:ASF F:\VICON\USERDATA\INSTALL\rory3\rory3.ASF
:FULLY-SPECIFIED
:DEGREES
76
root 0.28276879018364653 18.122012867031057 30.571030363813797 2.875867507153832 -2.678026522803721 -3.291361984386159
lfemur 7.30265103752507 -2.262797987792948 -23.30674547496611
ltibia 57.48817984576027
lfoot 17.132306969046823 -12.65504405553912
ltoes -7.451947608192649
rfemur -39.249391375756154 -4.820784487320517 27.75779566113517
rtibia 87.59215047054462
rfoot -13.483352846126326 -0.98818598011374
rtoes -3.095022286456868
lowerback nan -0.7664043928162613 -0.44349332815371967
upperback -0.9644302057731342 -2.000221805708078 3.0198505890561407
thorax -9.334940661613402 -0.4562899577543884 4.069157246870744
lowerneck -20.549438447625082 -2.485698844813681 -1.9212807803050977
upperneck 10.62310258787101 -4.198067921215246 3.679188349383094
head 6.876620606532131 -1.7497563360385406 1.0096363436722964
lclavicle 7.500236510495769e-15 3.4063066275688827e-15
lhumerus -39.8927828960707 -21.907965254417867 100.32324735633958
lradius 106.78100431981242
lwrist 29.584340750877857
lhand -23.122180829229773 1.103520529981369
lfingers nan
lthumb 3.3732132014404597 31.310628851391883
rclavicle 6.394550127593216e-15 2.378539489095115e-15
rhumerus -58.538384285958756 -3.1629328422017835 -90.58738767006174
rradius 101.80803026475671
rwrist -1.3775460597489388
rhand -14.508569249630822 nan
rfingers nan
rthumb 11.391584711890772 9.220584671753233
77
root 0.2843172593373344 18.0514590720346 31.29754145093098 2.631776082089509 -2.293546448082555 -3.327942548908927
lfemur 5.160660114097308 -1.594400301863122 -22.253578118837115
ltibia 61.1119237405281
lfoot 17.931642542707586 -11.349389851016465
ltoes -3.2573166968488314
rfemur -38.444475625505675 -4.989375871352552 27.86518188308972
rtibia 90.37528704266062
rfoot -16.281957397693006 -2.754905561481866
rtoes -0.37513998931864867
lowerback nan -0.7572288988593162 -0.1507324099655034
upperback -1.1043536296243033 -1.950102584887549 2.935314955766529
thorax -10.044669359127596 -0.3914070236280702 3.9247844253769077
lowerneck -20.605657923523214 -2.502629346958102 -1.9807013048517446
upperneck 10.90887121204654 -4.3158960801907735 3.8210681746862116
head 6.973903703210374 -1.7830908310188385 1.051179956214853
lclavicle -1.1882565388690482e-14 -3.2054847236857626e-15
lhumerus -41.27760573354846 -20.84197100889796 100.56434357447179
lradius 105.1897242507539
lwrist 29.09852508053511
lhand -23.441119148788008 1.3289043772793203
lfingers nan
lthumb 3.0536854417263246 31.507479918785958
rclavicle -1.3499940522485873e-14 -4.6458134483034984e-15
rhumerus -57.39367185246248 -2.7337200187991986 -90.97485948748317
rradius 101.46083851594832
rwrist -1.8726746303782331
rhand -14.243726890285762 nan
rfingers nan
rthumb 11.641967285432887 9.208146265310747
78
root 0.27399435486071794 17.98593826388478 32.30694948972577 2.4814268918253553 -2.0637257522912957 -3.311104775869623
lfemur 2.8294501586870204 -0.7093856070399385 -21.104150146716808
ltibia 64.58238536428132
lfoot 18.004068410912744 -9.291670456403171
ltoes 1.5228266752754251
rfemur -37.78323234497835 -4.753837663737656 27.796082158841497
rtibia 93.07675310078235
rfoot -18.96753391195705 -4.804496789667767
rtoes -0.5637861792853482
lowerback nan -0.6774313281913739 0.06541864577619583
upperback -1.1205371712320074 -1.8572237985231645 2.83465021064493
thorax -10.50833247340013 -0.27898006386641094 3.761830841090493
lowerneck -21.11333174242411 -2.540299557401901 -1.8314352332084287
upperneck 11.217644752515703 -4.484017030550371 3.8306034138274727
head 7.118765337555397 -1.8445853551900226 1.0132540919586177
lclavicle -3.205556235329708e-14 -5.823932151259284e-14
lhumerus -42.74403924195026 -19.771502401816562 100.7849850708741
lradius 103.75942847016961
lwrist 28.436001353336597
lhand -23.96452145837302 1.198329797587627
lfingers nan
lthumb 2.5596982961809536 31.412682808843382
rclavicle -3.357423197971662e-14 -5.934492723146098e-14
rhumerus -56.203005850576844 -2.0909649691664445 -91.52950343421182
rradius 101.36591894133977
rwrist -3.3071719820661087
rhand -14.247307296058638 nan
rfingers nan
rthumb 11.637212885432865 9.067688380492646
79
root 0.24281769862471647 17.93445773053261 32.76669110512127 2.4716446681817503 -2.2730400689750727 -3.525845939044144
lfemur 0.517459693090446 0.5833947285942855 -19.58955712472943
ltibia 67.82965041804833
lfoot 16.475713889615122 -7.798760604488035
ltoes 1.9385260694091553
rfemur -37.256969658313054 -4.03838226692911 27.999348485536242
rtibia 95.5294423022264
rfoot -21.3983892430191 -6.9689364091591175
rtoes -2.3356530039091314
lowerback nan -0.43145656295176404 0.34467095512952084
upperback -0.9330815560015107 -1.559466905621804 2.731981980670013
thorax -10.345126980129383 -0.0758657696026277 3.4256658719002626
lowerneck -21.877561002904116 -2.551554040608531 -1.4683974415539627
upperneck 11.6839834937488 -4.626382805451806 3.7759441216497285
head 7.3303748715513875 -1.887114716401466 0.9295614044753686
lclavicle -6.836163467107124e-15 -2.981345578339639e-14
lhumerus -43.87844229491789 -18.80453285875311 100.70650735993999
lradius 102.37266450026044
lwrist 28.249111508095094
lhand -24.083301955615365 1.1428978944565271
lfingers nan
lthumb 2.4603244101772797 31.376858534118714
rclavicle -7.694823746357994e-15 -3.0129882603225806e-14
rhumerus -54.69164373838868 -1.3844267009577589 -92.29812366124493
rradius 101.11292483331971
rwrist -5.543594755179219
rhand -14.599287315800654 nan
rfingers nan
rthumb 11.292177411302106 9.238115265783742
80
root 0.19854776857206025 17.902921707269584 32.53609723468062 2.8232392561646975 -2.9325400373562776 -4.16987188281851
lfemur -1.8817125513990227 2.2968541967647194 -17.652754119520225
ltibia 70.68453176163979
lfoot 14.426361760461385 -7.2680821892209835
ltoes 1.9456612212028137
rfemur -36.567924007482354 -3.021953005927079 28.749928763115786
rtibia 97.37656757649651
rfoot -22.537500299301005 -10.580197700616921
rtoes -3.95269412966106
lowerback nan -0.019263241322214797 0.8896014181903621
upperback -0.5137085780848009 -0.9866838725965861 2.7524153959238316
thorax -9.183333326329564 0.1821702794207002 2.8209290029867837
lowerneck -22.529355357585448 -2.541558698425373 -1.0315135108181268
upperneck 11.786294809075853 -4.680437199409605 3.606461229541509
head 7.441265800555667 -1.9072844563231013 0.7989969389140028
lclavicle -1.9450155295139694e-14 2.9460845489191675e-14
lhumerus -44.712230301144146 -17.901491579221464 100.56726132982324
lradius 101.13546864570661
lwrist 28.093385743532863
lhand -24.473386998055936 1.76273800274652
lfingers nan
lthumb 2.0514264772218103 31.95360438442072
rclavicle -2.0000774954266372e-14 2.891878421531269e-14
rhumerus -52.4161846960706 -0.49356736864887907 -92.99236851305977
rradius 100.37352776017204
rwrist -7.832419659680797
rhand -14.612092728159082 nan
rfingers nan
rthumb 11.2701800560785 9.344250322761667
81
root 0.16459249864473036 17.852453312493434 32.43933289753519 2.80611728648419 -2.420971211141726 -4.856034163812058
lfemur -4.215278617291887 3.069905266558817 -15.440392323556463
ltibia 73.72206140683068
lfoot 12.88640401299641 -7.638182963499266
ltoes 0.8343915557471835
rfemur -35.628527005885985 -2.864461525950346 29.85035355336047
rtibia 98.79661155656879
rfoot -23.56383581120648 -14.826510345743497
rtoes -5.1839681741942725
lowerback nan -0.029325979452352935 1.650961099607406
upperback -0.27568451676724237 -0.7892567959071355 3.0200996152778306
thorax -9.109913754396741 0.2307262876855885 2.6262963460056588
lowerneck -22.906511886758057 -2.5898875348043524 -0.9191578883272982
upperneck 11.46063131944696 -4.751843547062075 3.5525217390830433
head 7.42492243751208 -1.9434321225072757 0.7391321508844613
lclavicle 1.0947732551968268e-14 6.099355575310885e-15
lhumerus -45.99222414923133 -16.705444080921097 100.55158974623473
lradius 100.19247512428636
lwrist 27.646052642753865
lhand -24.751882740263206 1.8427976273521613
lfingers nan
lthumb 1.7799673050492977 32.02871708995665
rclavicle 9.570804712426922e-15 5.2183479498825746e-15
rhumerus -50.1993218512001 0.6890736129869044 -93.36643851834344
rradius 99.79937190294173
rwrist -9.97358008710855
rhand -14.303132104239532 nan
rfingers nan
rthumb 11.553181633937259 8.872150390043092
82
root 0.12193423797204639 17.808677968004016 32.965717404891144 2.721131988418548 -2.0872786714977174 -5.674219063504464
lfemur -6.496202039360515 4.005518818634022 -13.009566623443561
ltibia 76.56946285950356
lfoot 11.631211487653962 -8.414112870084217
ltoes -1.7265036543529213
rfemur -34.29031135707568 -2.5965817881722266 31.196783426932228
rtibia 99.65894442404029
rfoot -24.849271896544888 -17.87886033304809
rtoes -5.585197506993766
lowerback nan 0.038764128730235936 2.4975492898734606
upperback -0.24814310261516082 -0.44326502894337105 3.384066420551771
thorax -9.544470335016303 0.35521201530494395 2.4609781083048583
lowerneck -22.446201537945196 -2.738958573003749 -1.118081292024593
upperneck 10.918326770199482 -4.91565408340545 3.6550004309178603
head 7.257955143009766 -2.01987611182073 0.7748075419753426
lclavicle -1.5211116827410853e-14 -2.6103588365357295e-14
lhumerus -47.942732801499574 -15.331557837925065 100.60179438411203
lradius 99.65129137995436
lwrist 27.061157917120564
lhand -24.744627070762597 1.844019247340337
lfingers nan
lthumb 1.7907352257007059 32.043913322069976
rclavicle -1.6628545657454217e-14 -2.7186381374579024e-14
rhumerus -48.52681634337991 1.9226776977134534 -93.54396605710285
rradius 99.60861156804172
rwrist -11.844926860865968
rhand -14.003973915760067 nan
rfingers nan
rthumb 11.829472204394913 8.208039260482833
83
root 0.08548757268665741 17.783681468663275 32.952151588458676 3.0275497300455285 -1.747908429057553 -6.513304763134837
lfemur -9.191237613226548 5.017129969220906 -10.621303578397862
ltibia 79.30401383888736
lfoot 10.093326150754038 -8.806390921558002
ltoes -2.5385202911050193
rfemur -33.064606494886156 -2.171279666983337 32.52901282654319
rtibia 100.18021827422034
rfoot -25.91295005400795 -20.57337605663223
rtoes -7.798756788977614
lowerback nan 0.03224791110324443 3.5214684477553875
upperback -0.5180242895668592 -0.16163995784327456 3.650140095724155
thorax -9.957664575265097 0.44876465329864823 2.132844957828247
lowerneck -21.22099226576448 -2.855507888359159 -1.080806665377167
upperneck 10.24899296024818 -5.10950106902924 3.744223338329999
head 6.964335702086942 -2.1003173245258724 0.7958134825440799
lclavicle -1.9202349823841577e-15 -9.052752672837198e-15
lhumerus -50.303666501786296 -13.941253929784704 100.52824393237672
lradius 99.44175146751348
lwrist 26.38626043642406
lhand -24.87677680913501 2.453926737468529
lfingers nan
lthumb 1.6521520785090618 32.639702699598885
rclavicle -3.67672962550312e-15 -9.961371155885887e-15
rhumerus -47.31404428905467 3.123328007035779 -93.91222978199757
rradius 99.6723313888159
rwrist -11.955169267103233
rhand -13.888283248716911 nan
rfingers nan
rthumb 11.937093292778732 7.938396812092744
